<?xml version="1.0" encoding="UTF-8" standalone="no"?>
<!DOCTYPE svg PUBLIC "-//W3C//DTD SVG 1.1//EN"
 "http://www.w3.org/Graphics/SVG/1.1/DTD/svg11.dtd">
<!-- Generated by graphviz version 11.0.0 (0)
 -->
<!-- Title: Server Pages: 1 -->
<svg width="299pt" height="260pt"
 viewBox="0.00 0.00 298.82 260.00" xmlns="http://www.w3.org/2000/svg" xmlns:xlink="http://www.w3.org/1999/xlink">
<g id="graph0" class="graph" transform="scale(1 1) rotate(0) translate(4 256)">
<title>Server</title>
<polygon fill="white" stroke="none" points="-4,4 -4,-256 294.82,-256 294.82,4 -4,4"/>
<!-- DB -->
<g id="node1" class="node">
<title>DB</title>
<ellipse fill="none" stroke="black" cx="199.04" cy="-234" rx="27" ry="18"/>
<text text-anchor="middle" x="199.04" y="-228.95" font-family="Times,serif" font-size="14.00">DB</text>
</g>
<!-- Content Management -->
<g id="node2" class="node">
<title>Content Management</title>
<ellipse fill="none" stroke="black" cx="199.04" cy="-162" rx="91.78" ry="18"/>
<text text-anchor="middle" x="199.04" y="-156.95" font-family="Times,serif" font-size="14.00">Content Management</text>
</g>
<!-- DB&#45;&gt;Content Management -->
<g id="edge1" class="edge">
<title>DB&#45;&gt;Content Management</title>
<path fill="none" stroke="black" d="M193.16,-216.05C192.38,-208.68 192.12,-199.84 192.39,-191.51"/>
<polygon fill="black" stroke="black" points="195.87,-191.99 193.02,-181.79 188.88,-191.54 195.87,-191.99"/>
</g>
<!-- Content Management&#45;&gt;DB -->
<g id="edge2" class="edge">
<title>Content Management&#45;&gt;DB</title>
<path fill="none" stroke="black" d="M204.95,-180.28C205.71,-187.6 205.95,-196.34 205.68,-204.57"/>
<polygon fill="black" stroke="black" points="202.19,-204.33 205.02,-214.54 209.17,-204.8 202.19,-204.33"/>
</g>
<!-- Content Rendering -->
<g id="node3" class="node">
<title>Content Rendering</title>
<ellipse fill="none" stroke="black" cx="81.04" cy="-90" rx="81.04" ry="18"/>
<text text-anchor="middle" x="81.04" y="-84.95" font-family="Times,serif" font-size="14.00">Content Rendering</text>
</g>
<!-- Content Management&#45;&gt;Content Rendering -->
<g id="edge3" class="edge">
<title>Content Management&#45;&gt;Content Rendering</title>
<path fill="none" stroke="black" d="M171.07,-144.41C155.23,-135.02 135.22,-123.15 118.09,-112.98"/>
<polygon fill="black" stroke="black" points="120.08,-110.09 109.69,-108 116.51,-116.11 120.08,-110.09"/>
</g>
<!-- API -->
<g id="node4" class="node">
<title>API</title>
<ellipse fill="none" stroke="black" cx="199.04" cy="-18" rx="27" ry="18"/>
<text text-anchor="middle" x="199.04" y="-12.95" font-family="Times,serif" font-size="14.00">API</text>
</g>
<!-- Content Management&#45;&gt;API -->
<g id="edge4" class="edge">
<title>Content Management&#45;&gt;API</title>
<path fill="none" stroke="black" d="M194.42,-143.59C191.92,-119.61 191.62,-76.14 193.51,-47.42"/>
<polygon fill="black" stroke="black" points="196.98,-47.88 194.33,-37.62 190.01,-47.29 196.98,-47.88"/>
</g>
<!-- Content Rendering&#45;&gt;API -->
<g id="edge6" class="edge">
<title>Content Rendering&#45;&gt;API</title>
<path fill="none" stroke="black" d="M108.4,-72.76C126.67,-61.93 150.68,-47.68 169.4,-36.58"/>
<polygon fill="black" stroke="black" points="171.07,-39.66 177.88,-31.55 167.5,-33.64 171.07,-39.66"/>
</g>
<!-- API&#45;&gt;Content Management -->
<g id="edge5" class="edge">
<title>API&#45;&gt;Content Management</title>
<path fill="none" stroke="black" d="M203.62,-36.11C206.14,-59.92 206.46,-103.37 204.59,-132.22"/>
<polygon fill="black" stroke="black" points="201.11,-131.83 203.77,-142.08 208.08,-132.4 201.11,-131.83"/>
</g>
</g>
</svg>
